<svg xmlns="http://www.w3.org/2000/svg" viewBox="0 0 64 64" width="64" height="64"><rect width="64" height="64" rx="13" fill="#ffffff"/><g transform="translate(8 8) scale(0.75)"><rect x="23" y="4" width="18" height="56" rx="4.5" fill="#005eb8"/><rect x="4" y="23" width="56" height="18" rx="4.5" fill="#005eb8"/><g transform="rotate(-35 30 41)" stroke="#ffffff" stroke-width="3.2" stroke-linecap="round" fill="none">
  <path d="M16 36 C 21 33 25 33 30 36 C 35 39 39 39 44 36"/>
  <path d="M16 41 C 21 38 25 38 30 41 C 35 44 39 44 44 41"/>
  <path d="M16 46 C 21 43 25 43 30 46 C 35 49 39 49 44 46"/>
</g></g></svg>
