<svg width="80" height="80" viewBox="0 0 80 80" fill="none" xmlns="http://www.w3.org/2000/svg">
<g clip-path="url(#clip0_30_465)">
<path d="M40.6484 58C27.2409 45.853 21.6757 25.5638 26.9986 8.17301C27.4347 6.75178 27.9677 5.30253 29.0405 4.28737C30.8956 2.53709 34.0035 2.6561 36.08 4.13334C38.1565 5.61058 39.2917 8.15899 39.6378 10.7004C39.9839 13.2418 39.6447 15.8252 39.3056 18.3737C40.6276 16.7634 41.9843 15.1251 43.7563 14.04C45.5213 12.9548 47.8055 12.4997 49.6744 13.3958C51.4879 14.271 52.5816 16.2663 52.8861 18.2756C53.1907 20.2849 52.8308 22.3363 52.4362 24.3316C50.2074 35.4844 45.3691 47.6663 40.6553 58H40.6484Z" fill="#F8D6DE"/>
</g>
<defs>
<clipPath id="clip0_30_465">
<rect width="80" height="80" fill="white"/>
</clipPath>
</defs>
</svg>
