<svg width="80" height="80" viewBox="0 0 80 80" fill="none" xmlns="http://www.w3.org/2000/svg">
<g clip-path="url(#clip0_30_472)">
<path fill-rule="evenodd" clip-rule="evenodd" d="M63.0366 30.5694L63.0881 30.8208L63.1312 31.0723L63.1742 31.3325L63.2258 31.5926L63.2688 31.8441L63.3204 32.1129L63.3634 32.373L63.415 32.6332L63.4581 32.902L63.5096 33.1708L63.5527 33.4396L63.5957 33.7084L63.6387 33.9773L63.6731 34.2547L63.7162 34.5322L63.7505 34.8097L63.7849 35.0872L63.8194 35.3734L63.8537 35.6509L63.8796 35.937L63.9054 36.2232L63.9312 36.518L63.9483 36.8042L63.9656 37.099L63.9828 37.3938L63.9914 37.6886L64 37.9835V38.2783V38.5818L63.9914 38.8766L63.9828 39.1801L63.9742 39.4836L63.9569 39.7871L63.9312 40.0906L63.9054 40.3941L63.8709 40.6976L63.828 41.0011L63.7849 41.3046L63.7419 41.6081L63.6817 41.9117L63.6215 42.2151L63.5613 42.5187L63.4839 42.8221L63.4064 43.1257L63.329 43.4292L63.2344 43.724L63.1398 44.0275L63.0366 44.3223L62.9333 44.6171L62.8129 44.9033L62.6925 45.1981L62.5634 45.4843L62.4344 45.7705L62.2968 46.0479L62.1505 46.3341L61.9957 46.6116L61.8409 46.8804L61.6775 47.1492L61.5054 47.418L61.3334 47.6868L61.1526 47.947L60.972 48.1985L60.7828 48.4586L60.585 48.7101L60.3871 48.9529L60.1806 49.1957L59.9655 49.4385L59.7505 49.6726L59.5354 49.9067L59.3119 50.1322L59.0882 50.3577L58.8559 50.5744L58.615 50.7912L58.3828 51.008L58.1419 51.2161L57.8925 51.4243L57.643 51.6324L57.3935 51.8318L57.1355 52.0226L56.886 52.222L56.6194 52.4041L56.3613 52.5949L56.0946 52.777L55.828 52.9591L55.5612 53.1325L55.286 53.306L55.0108 53.4794L54.7355 53.6441L54.4516 53.8089L54.1763 53.965L53.8925 54.1297L53.6086 54.2772L53.3161 54.4332L53.0323 54.5807L52.7398 54.7194L52.4473 54.8668L52.1548 54.9969L51.8538 55.1356L51.5527 55.2657L51.2602 55.3871L50.9505 55.5172L50.6495 55.6299L50.3484 55.7426L50.0387 55.8554L49.7291 55.9594L49.4194 56.0635L49.1096 56.1589L48.7914 56.2543L48.4817 56.341L48.1634 56.4277L47.8451 56.5057L47.5269 56.5751L47.2 56.6445L46.8817 56.7052L46.5548 56.7659L46.2366 56.8179L45.9097 56.8613L45.5828 56.8959L45.2559 56.9306L44.929 56.9566L44.6107 56.974L44.2752 56.9913L43.9484 57H43.6215L43.2946 56.9913L42.9678 56.9827L42.6409 56.9653L42.3226 56.9393L41.9958 56.9046L41.6689 56.8613L41.342 56.8179L41.0237 56.7659L40.7054 56.7052L40.3872 56.6445L40.0688 56.5664L39.7505 56.4884L39.4408 56.4017L39.1226 56.315L38.8129 56.2109L38.5118 56.1068L38.2022 55.9941L37.9011 55.8814L37.6 55.76L37.3075 55.6299L37.0151 55.4912L36.7226 55.3437L36.4387 55.1963L36.1549 55.0403L35.8795 54.8842L35.6043 54.7194L35.3291 54.546L35.0624 54.3725L34.7958 54.1904L34.5377 53.9997L34.2882 53.8089L34.0388 53.6095L33.7893 53.41L33.5484 53.2019L33.3075 52.9938L33.0753 52.777L32.8517 52.5602L32.628 52.3347L32.413 52.1093L32.1979 51.8752L31.9915 51.6497L31.785 51.4156L31.5871 51.1728L31.3892 50.9386L31.2 50.6958L31.0194 50.453L30.8387 50.2016L30.6581 49.9588L30.4861 49.7073L30.3226 49.4558L30.1592 49.213L29.9957 48.9615L29.8409 48.7101L29.686 48.4586L29.5398 48.2071L29.3936 47.9557L29.2559 47.7129L29.1183 47.4614L28.9807 47.2099L28.8517 46.9671L28.7226 46.7156L28.5935 46.4728L28.4731 46.23L28.3527 45.9786L28.2323 45.7358L28.1119 45.5016L28.0001 45.2588L27.8882 45.016L27.7764 44.7819L27.6646 44.5478L27.5613 44.3136L27.4581 44.0795L27.3549 43.8454L27.2517 43.6113L27.1484 43.3858L27.0538 43.1517L26.9591 42.9262L26.8559 42.7007L26.7613 42.4753L26.6667 42.2585L26.5807 42.0331L26.4861 41.8076L26.3915 41.5908L26.2968 41.374L26.2107 41.1572L26.1161 40.9404L26.0301 40.7237L25.9355 40.5155L25.8409 40.2988L25.7549 40.0906L25.6602 39.8825L25.5656 39.6744L25.471 39.4663L25.3677 39.2669L25.2731 39.0587L25.1699 38.8593L25.0667 38.6512L24.9635 38.4517L24.8516 38.2523L24.7484 38.0528L24.6366 37.8534L24.5161 37.654L24.3957 37.4545L24.2753 37.2637L24.1548 37.0643L24.0259 36.8649L23.8968 36.6654L23.7591 36.466L23.6215 36.2665L23.4839 36.0671L23.3377 35.8676L23.1914 35.6682L23.0452 35.4601L22.8903 35.252L22.7355 35.0525L22.572 34.8444L22.4087 34.6276L22.2452 34.4195L22.0818 34.2027L21.9097 33.9859L21.7377 33.7605L21.5657 33.535L21.3936 33.3096L21.2129 33.0754L21.0323 32.8413L20.8602 32.6072L20.6796 32.3644L20.4989 32.1216L20.3183 31.8701L20.1377 31.6186L19.9571 31.3585L19.785 31.0983L19.6044 30.8382L19.4322 30.5694L19.2516 30.2919L19.0796 30.0144L18.9161 29.7369L18.7441 29.4507L18.5806 29.1559L18.4173 28.8611L18.2624 28.5663L18.1076 28.2628L17.9613 27.9593L17.815 27.6471L17.6775 27.3262L17.5398 27.0141L17.4108 26.6932L17.2817 26.3637L17.1614 26.0342L17.0495 25.7047L16.9377 25.3665L16.8345 25.0283L16.7398 24.6901L16.6452 24.3433L16.5592 23.9964L16.4818 23.6495L16.4044 23.294L16.3355 22.9385L16.2753 22.5829L16.2151 22.2274L16.1635 21.8632L16.1204 21.499L16.0861 21.1348L16.0603 20.7706L16.0344 20.3977L16.0172 20.0335L16.0086 19.6607L16 19.2878L16.0086 18.9149L16.0172 18.542L16.0344 18.1605L16.0603 17.7876L16.0946 17.4148L16.1377 17.0419L16.1807 16.6603L16.2409 16.2875L16.3097 15.9146L16.3785 15.5504L16.4645 15.1775L16.5505 14.8046L16.6538 14.4404L16.7656 14.0762L16.8774 13.7207L17.0065 13.3565L17.1442 13.001L17.2903 12.6541L17.4452 12.3073L17.6086 11.9691L17.7807 11.6309L17.9613 11.2927L18.1505 10.9632L18.3484 10.6423L18.5549 10.3302L18.7785 10.018L19.0021 9.71449L19.2344 9.41967L19.4753 9.12483L19.7248 8.83868L19.9914 8.56119L20.2581 8.29237L20.5247 8.03223L20.8087 7.78076L21.1011 7.52928L21.3936 7.29516L21.6946 7.06969L22.0043 6.84424L22.3227 6.63612L22.6409 6.42801L22.9678 6.22856L23.3032 6.04647L23.6387 5.86436L23.9828 5.6996L24.3269 5.53484L24.6796 5.38743L25.0323 5.24001L25.385 5.10127L25.7463 4.97987L26.1075 4.85847L26.4775 4.75441L26.8473 4.65036L27.2172 4.55497L27.5872 4.46825L27.957 4.39021L28.3355 4.32084L28.7054 4.26015L29.0839 4.20811L29.4624 4.16476L29.8409 4.1214L30.2108 4.08671L30.5893 4.06069L30.9677 4.03468L31.3377 4.01733L31.7075 4.00867H32.0861L32.4559 4L32.8172 4.00867L33.1871 4.01733L33.5484 4.02601L33.9097 4.04336L34.2709 4.05203L34.6323 4.07804L34.985 4.09539L35.3376 4.1214L35.6903 4.13873L36.043 4.16476L36.3871 4.19077L36.7312 4.21679L37.0666 4.2428L37.4107 4.26015L37.7462 4.28616L38.0817 4.31217L38.4172 4.32951L38.7441 4.34685L39.071 4.3642L39.4065 4.38155L39.7334 4.39888L40.0517 4.40756L40.3785 4.41623L40.7054 4.42489L41.0237 4.43357H41.3506H41.6689L41.9958 4.42489L42.314 4.41623L42.6409 4.40756L42.9592 4.39888L43.2861 4.38155L43.613 4.37287L43.9397 4.35552L44.2666 4.32951L44.5935 4.31217L44.9204 4.28616L45.2559 4.26881L45.5828 4.2428L45.9183 4.21679L46.2538 4.19944L46.5893 4.17343L46.9334 4.15608L47.2774 4.13873L47.6129 4.1214L47.9656 4.10405L48.3097 4.09539L48.6538 4.08671L49.0064 4.07804H49.3505L49.7032 4.08671L50.056 4.09539L50.4086 4.11272L50.7613 4.13873L51.114 4.16476L51.4666 4.19944L51.8193 4.2428L52.1634 4.29483L52.5162 4.35552L52.8603 4.42489L53.2043 4.50295L53.5484 4.58099L53.8925 4.67637L54.228 4.78043L54.5635 4.89316L54.899 5.02323L55.2259 5.15331L55.5441 5.29204L55.8624 5.44813L56.1721 5.61289L56.4817 5.77765L56.7828 5.95975L57.0752 6.15052L57.3678 6.35864L57.6516 6.56675L57.9268 6.78353L58.1936 7.009L58.4517 7.24312L58.7097 7.4946L58.9505 7.74607L59.1914 8.00621L59.4236 8.27503L59.6473 8.55252L59.8537 8.83L60.0603 9.12483L60.2581 9.41967L60.4473 9.71449L60.6279 10.0267L60.8 10.3388L60.9634 10.651L61.1183 10.9719L61.2645 11.3014L61.4021 11.6309L61.5312 11.9604L61.6516 12.2986L61.7721 12.6281L61.8753 12.975L61.9699 13.3131L62.0645 13.6513L62.1505 13.9982L62.2279 14.3451L62.2968 14.6919L62.357 15.0301L62.4172 15.377L62.4688 15.7238L62.5118 16.062L62.5548 16.4089L62.5892 16.7471L62.6151 17.0852L62.6409 17.4234L62.6666 17.7616L62.6838 18.0998L62.6925 18.4293L62.7011 18.7588L62.7097 19.0797V19.4092V19.73V20.0422V20.3631L62.7011 20.6752L62.6925 20.9874L62.6838 21.2909L62.6752 21.5944L62.658 21.8892L62.6494 22.1927L62.6409 22.4789L62.6237 22.7737L62.6151 23.0599L62.5978 23.346L62.5892 23.6235L62.5806 23.901L62.572 24.1785L62.5634 24.456V24.7248L62.5548 24.9936V25.2538V25.5226V25.7827L62.5634 26.0429V26.303L62.572 26.5545L62.5892 26.806L62.5978 27.0661L62.6151 27.3176L62.6323 27.569L62.658 27.8205L62.6838 28.0633L62.7097 28.3148L62.7355 28.5663L62.7698 28.8177L62.8043 29.0605L62.8387 29.312L62.8731 29.5635L62.9161 29.8149L62.9506 30.0664L62.9935 30.3179L63.0366 30.5694Z" fill="#FFDFB4"/>
</g>
<defs>
<clipPath id="clip0_30_472">
<rect width="80" height="80" fill="white"/>
</clipPath>
</defs>
</svg>
