<svg width="80" height="80" viewBox="0 0 80 80" fill="none" xmlns="http://www.w3.org/2000/svg">
<g clip-path="url(#clip0_30_451)">
<path d="M25.7956 51.7271C26.9579 52.5834 28.3056 52.9944 29.6476 52.9944C31.6634 52.9944 33.6511 52.0582 34.937 50.3C34.937 50.3 34.9426 50.2943 34.9482 50.2886C34.9482 50.2886 34.9538 50.2829 34.9595 50.2772C34.9595 50.2772 34.9651 50.2601 34.9707 50.2601L39.5021 43.9466L44.0335 50.2601C44.0335 50.2601 44.0447 50.2715 44.0447 50.2772C44.0447 50.2772 44.0447 50.2772 44.0503 50.2886C46.1841 53.2341 50.2887 53.8792 53.2029 51.7328C56.1228 49.5808 56.7798 45.4251 54.6685 42.4624C54.6685 42.4624 54.6629 42.4453 54.6573 42.4396L50.1371 36.1262L57.4648 33.7115C60.9069 32.5756 62.7992 28.8138 61.6761 25.3259C60.5587 21.8381 56.8472 19.9201 53.3995 21.0561L46.0718 23.4593V15.6503C46.0661 11.9855 43.1182 9 39.5021 9C35.886 9 32.938 11.9855 32.9324 15.656V23.4593L25.5991 21.0561C25.5991 21.0561 25.5935 21.0561 25.5879 21.0561H25.5766C22.1402 19.9372 18.4398 21.8552 17.3224 25.3373C16.205 28.8194 18.0861 32.5699 21.5113 33.7115C21.5113 33.7115 21.5169 33.7115 21.5225 33.7115H21.5337V33.7172L28.8558 36.1319L24.3357 42.4453C24.3357 42.4453 24.3357 42.451 24.3301 42.4567C24.3244 42.4624 24.3301 42.4624 24.3245 42.4681C22.2132 45.4365 22.8701 49.5922 25.79 51.7442L25.7956 51.7271Z" fill="#EEE5E1"/>
</g>
<defs>
<clipPath id="clip0_30_451">
<rect width="80" height="80" fill="white"/>
</clipPath>
</defs>
</svg>
