<svg width="12" height="12" viewBox="0 0 12 12" fill="none" xmlns="http://www.w3.org/2000/svg">
<path d="M6.031 1.33879C5.96889 1.31103 5.89971 1.30313 5.83294 1.3162C5.76616 1.32927 5.70506 1.36266 5.658 1.41179C5.61218 1.45905 5.57894 1.51703 5.56129 1.58044C5.54365 1.64385 5.54218 1.71067 5.557 1.77479C5.606 1.99079 5.631 2.21779 5.631 2.44879C5.631 2.97879 5.498 3.34879 5.268 3.65679C5.035 3.96979 4.698 4.22379 4.271 4.51079C4.26426 4.51526 4.25791 4.52028 4.252 4.52579L4.2 4.57779C3.66073 4.9259 3.2339 5.42283 2.97114 6.00845C2.70838 6.59407 2.62096 7.24328 2.71945 7.87755C2.81794 8.51181 3.09812 9.10395 3.5261 9.5823C3.95408 10.0607 4.51151 10.4047 5.13095 10.5729C5.75039 10.7411 6.40529 10.7262 7.01643 10.53C7.62756 10.3337 8.16873 9.96459 8.57447 9.46722C8.9802 8.96986 9.23311 8.36558 9.3026 7.72748C9.37209 7.08939 9.25517 6.44483 8.966 5.87179C8.95681 5.8538 8.94332 5.83834 8.92673 5.8268C8.91015 5.81526 8.89097 5.80797 8.87091 5.8056C8.85084 5.80323 8.83049 5.80584 8.81167 5.8132C8.79285 5.82056 8.77614 5.83244 8.763 5.84779L8.66 5.96579C8.228 6.47079 7.88 6.87879 7.165 7.06079C7.134 7.06779 7.115 7.06279 7.102 7.05479C7.0807 7.03996 7.06488 7.01852 7.057 6.99379C7.04416 6.95962 7.04082 6.92261 7.04733 6.88668C7.05385 6.85076 7.06997 6.81728 7.094 6.78979C7.476 6.37479 7.748 5.81179 7.844 5.01179C8.027 3.51179 7.345 1.91479 6.031 1.33879Z" fill="#ED393E"/>
</svg>
