<svg width="20" height="23" viewBox="0 0 20 23" fill="none" xmlns="http://www.w3.org/2000/svg">
<g clip-path="url(#clip0_30_654)">
<path d="M15.135 2.72309L15.1967 2.73975L15.6283 2.88309L15.63 2.88392C16.1183 3.04725 16.5325 3.18392 16.8592 3.33392C17.2 3.48975 17.4983 3.68059 17.7358 3.98059C17.9733 4.28059 18.0908 4.61392 18.1642 4.98059C18.2342 5.33392 18.2733 5.76809 18.32 6.28059L18.9 12.6556C18.9899 13.1697 18.9773 13.6966 18.8628 14.2058C18.7483 14.715 18.5342 15.1965 18.2329 15.6227C17.9316 16.0489 17.5489 16.4112 17.107 16.689C16.6651 16.9667 16.1726 17.1543 15.6579 17.2409C15.1432 17.3275 14.6165 17.3115 14.108 17.1938C13.5995 17.0761 13.1194 16.859 12.6951 16.5549C12.2709 16.2509 11.9109 15.866 11.636 15.4223C11.3611 14.9786 11.1767 14.485 11.0933 13.9698L10.91 13.9056C10.3215 13.6956 9.6785 13.6956 9.08999 13.9056L8.90666 13.9706C8.82329 14.4858 8.63885 14.9795 8.36395 15.4231C8.08905 15.8668 7.72912 16.2517 7.30488 16.5558C6.88064 16.8598 6.40046 17.0769 5.89197 17.1946C5.38349 17.3124 4.85675 17.3284 4.34205 17.2417C3.82736 17.1551 3.33489 16.9675 2.89297 16.6898C2.45106 16.4121 2.06843 16.0497 1.7671 15.6235C1.46578 15.1974 1.25171 14.7158 1.13722 14.2066C1.02273 13.6974 1.01008 13.1705 1.09999 12.6564L1.67999 6.28142L1.74916 5.57059C1.77333 5.35392 1.80083 5.15725 1.83583 4.98142C1.90999 4.61475 2.02749 4.27975 2.26499 3.98059C2.50249 3.68059 2.80083 3.48975 3.14166 3.33392C3.46833 3.18392 3.88166 3.04725 4.36999 2.88392H4.37166L4.80333 2.73975C4.96069 2.68759 5.13233 2.70008 5.28048 2.77447C5.42863 2.84886 5.54117 2.97906 5.59333 3.13642C5.64549 3.29378 5.633 3.46542 5.55861 3.61357C5.48422 3.76173 5.35402 3.87426 5.19666 3.92642L4.76583 4.06892C4.25166 4.24059 3.91333 4.35475 3.66166 4.47059C3.42333 4.57892 3.31583 4.66725 3.24499 4.75642C3.17333 4.84642 3.11333 4.97059 3.06166 5.22725C3.00749 5.49809 2.97416 5.85475 2.92499 6.39392L2.57833 10.2023C3.11793 9.78502 3.75619 9.5143 4.43121 9.41635C5.10623 9.3184 5.79511 9.39655 6.43105 9.64321C7.06698 9.88987 7.62838 10.2967 8.06081 10.8242C8.49325 11.3517 8.78203 11.982 8.89916 12.6539C9.61802 12.4459 10.3811 12.4459 11.1 12.6539C11.2171 11.982 11.5059 11.3517 11.9383 10.8242C12.3708 10.2967 12.9322 9.88987 13.5681 9.64321C14.204 9.39655 14.8929 9.3184 15.5679 9.41635C16.243 9.5143 16.8812 9.78502 17.4208 10.2023L17.075 6.39392C17.0258 5.85392 16.9925 5.49809 16.9383 5.22642C16.8875 4.96975 16.8267 4.84642 16.7558 4.75642C16.685 4.66725 16.5783 4.57892 16.3392 4.47059C16.0875 4.35475 15.7475 4.24142 15.2333 4.07059V4.06892L14.8033 3.92725L14.7433 3.90225C14.6034 3.83805 14.4921 3.72448 14.4308 3.58331C14.3694 3.44213 14.3623 3.28327 14.4108 3.13719C14.4594 2.9911 14.5601 2.86806 14.6937 2.79165C14.8274 2.71523 14.9845 2.69082 15.135 2.72309ZM4.99999 10.6248C4.37079 10.6248 3.76122 10.8439 3.27598 11.2444C2.79073 11.645 2.46009 12.202 2.34083 12.8198L2.29166 13.3573C2.29643 13.8919 2.45932 14.4131 2.7598 14.8553C3.06028 15.2975 3.48491 15.6408 3.9802 15.8421C4.47548 16.0434 5.01926 16.0936 5.54302 15.9864C6.06679 15.8792 6.5471 15.6194 6.92345 15.2396C7.29981 14.8599 7.55536 14.3773 7.65792 13.8526C7.76048 13.3279 7.70545 12.7846 7.49977 12.2911C7.29409 11.7977 6.94697 11.3761 6.50212 11.0796C6.05728 10.783 5.53462 10.6248 4.99999 10.6248ZM15 10.6248C14.4653 10.6246 13.9426 10.7827 13.4976 11.0792C13.0527 11.3756 12.7054 11.7971 12.4996 12.2906C12.2938 12.784 12.2387 13.3274 12.3411 13.8521C12.4436 14.3769 12.6991 14.8596 13.0754 15.2393C13.4517 15.6191 13.932 15.8791 14.4558 15.9863C14.9796 16.0936 15.5234 16.0435 16.0188 15.8422C16.5141 15.6409 16.9388 15.2976 17.2393 14.8554C17.5398 14.4132 17.7027 13.8919 17.7075 13.3573L17.6583 12.8198C17.5391 12.2021 17.2086 11.6452 16.7235 11.2447C16.2384 10.8441 15.6291 10.625 15 10.6248Z" fill="#212223"/>
</g>
<defs>
<clipPath id="clip0_30_654">
<rect width="20" height="20" fill="white"/>
</clipPath>
</defs>
</svg>
